<svg width="232" height="50" viewBox="0 0 232 50" fill="none" xmlns="http://www.w3.org/2000/svg">
<g clip-path="url(#clip0_346:286)">
<path d="M19.1572 35.2694C17.9078 32.1574 17.9078 28.6304 19.7819 25.5184L18.3243 24.6885C16.6585 27.593 13.5351 29.4603 10.4117 29.8752C6.8718 29.6677 3.33194 31.5349 1.24967 34.8545C-1.45728 39.4188 0.208537 45.6428 4.99776 48.5474C9.78698 51.2445 16.0338 49.7922 18.7407 45.0204C20.6148 41.9084 20.823 38.174 19.1572 35.2694Z" fill="#7C287D"/>
<path d="M19.7813 25.519C21.6553 22.407 24.987 20.5398 28.5268 20.3323C31.8585 20.1248 34.9819 18.4651 36.8559 15.3531C39.7711 10.5813 38.3135 4.3572 33.316 1.45264C28.5268 -1.45193 22.28 0.207824 19.3648 4.97961C17.4908 7.88417 17.4908 11.6186 18.9484 14.5232C20.406 17.6352 20.406 21.3696 18.3237 24.4817" fill="#F7EC13"/>
<path d="M40.1875 29.2535C40.1875 27.3863 40.604 25.5191 41.2286 23.6519C41.8533 21.7846 42.8945 20.1249 44.1438 18.6726C45.3932 17.2203 47.059 15.9755 48.933 15.1456C50.8071 14.3158 52.8894 13.6934 55.1799 13.6934C58.095 13.6934 60.3855 14.3158 62.4678 15.5606C64.5501 16.8054 66.0077 18.4651 67.0488 20.5398L63.3007 23.0295C62.8843 22.1996 62.2596 21.3697 61.6349 20.7473C61.0102 20.1249 60.3855 19.5025 59.5526 19.295C58.7197 18.8801 58.095 18.6726 57.2621 18.4651C56.4292 18.2577 55.8045 18.2577 54.9716 18.2577C53.3058 18.2577 51.8482 18.6726 50.5989 19.295C49.3495 19.9174 48.3084 20.7473 47.4754 21.7846C46.6425 22.822 46.0179 24.0668 45.6014 25.3116C45.185 26.5564 44.9767 28.0087 44.9767 29.2535C44.9767 30.7058 45.185 32.1581 45.8096 33.6104C46.2261 35.0627 47.059 36.1 47.8919 37.1373C48.7248 38.1747 49.7659 39.0046 51.0153 39.627C52.2647 40.2494 53.514 40.6643 54.9716 40.6643C55.8045 40.6643 56.4292 40.6643 57.2621 40.4568C58.095 40.2494 58.9279 40.0419 59.5526 39.627C60.3855 39.212 61.0102 38.5896 61.6349 37.9672C62.2596 37.3448 62.676 36.5149 63.0925 35.6851L67.257 37.9672C66.8406 39.212 66.0077 40.2494 65.1748 41.0792C64.3418 41.9091 63.3007 42.739 62.0513 43.3614C61.0102 43.9838 59.7609 44.3987 58.5115 44.8137C57.2621 45.2286 56.0128 45.2286 54.7634 45.2286C52.6811 45.2286 50.5989 44.8137 48.7248 43.7763C46.8508 42.9465 45.3932 41.7017 44.1438 40.0419C42.8945 38.5896 41.8533 36.9299 41.0204 34.8552C40.604 32.988 40.1875 31.1207 40.1875 29.2535Z" fill="#252525"/>
<path d="M84.7482 45.0212C82.4577 45.0212 80.5837 44.6062 78.7096 43.7763C76.8356 42.9465 75.378 41.7017 73.9204 40.2494C72.4628 38.7971 71.6299 37.1373 70.797 35.2701C70.1723 33.4029 69.7559 31.5357 69.7559 29.461C69.7559 27.3863 70.1723 25.5191 70.797 23.4444C71.6299 21.5772 72.671 19.9174 73.9204 18.4651C75.1698 17.0129 76.8356 15.768 78.7096 14.9382C80.5837 14.1083 82.4577 13.6934 84.7482 13.6934C87.0387 13.6934 88.9127 14.1083 90.7868 15.1456C92.6608 15.9755 94.1184 17.2203 95.3678 18.6726C96.6171 20.1249 97.6583 21.7846 98.283 23.6519C98.9076 25.5191 99.3241 27.3863 99.3241 29.461C99.3241 31.5357 98.9076 33.4029 98.283 35.4776C97.6583 37.5523 96.4089 39.0046 95.1596 40.4568C93.9102 41.9091 92.2444 42.9465 90.3703 43.9838C88.7045 44.6062 86.8305 45.0212 84.7482 45.0212ZM74.7533 29.461C74.7533 30.9133 74.9615 32.3656 75.378 33.6104C75.7944 34.8552 76.4191 36.1 77.4603 37.1373C78.5014 38.1747 79.3343 39.0046 80.5837 39.627C81.833 40.2494 83.0824 40.6643 84.7482 40.6643C86.414 40.6643 87.6634 40.2494 88.9128 39.627C90.1621 39.0046 91.2032 38.1747 92.0362 36.9299C92.8691 35.8925 93.4937 34.6477 93.9102 33.4029C94.3266 32.1581 94.5349 30.7058 94.5349 29.2535C94.5349 27.8012 94.3266 26.349 93.9102 25.1041C93.4937 23.6519 92.8691 22.6145 91.8279 21.5772C90.995 20.5398 89.9539 19.71 88.7045 19.0875C87.4552 18.4651 86.2058 18.0502 84.7482 18.0502C83.0824 18.0502 81.833 18.4651 80.5837 19.0875C79.3343 19.71 78.2932 20.5398 77.4603 21.5772C76.6274 22.6145 76.0027 23.8593 75.5862 25.1041C74.9615 26.5564 74.7533 28.0087 74.7533 29.461Z" fill="#252525"/>
<path d="M130.766 44.8133V22.6141L121.604 39.4191H118.897L109.527 22.6141V44.8133H104.529V13.9004H109.735L119.938 32.7801L130.141 13.9004H135.347V44.8133H130.766Z" fill="#252525"/>
<path d="M142.635 44.8133V13.9004H147.632V44.8133H142.635Z" fill="#252525"/>
<path d="M175.951 40.4564V44.8133H154.504V13.9004H175.327V18.2572H159.293V26.9709H173.244V31.1203H159.293V40.6639H175.951V40.4564Z" fill="#252525"/>
<path d="M180.949 44.8133V13.9004H194.484C195.942 13.9004 197.191 14.1079 198.44 14.7303C199.69 15.3527 200.731 15.9751 201.564 17.0124C202.397 18.0498 203.021 19.0871 203.646 20.3319C204.062 21.5767 204.271 22.8216 204.271 24.0664C204.271 25.1037 204.062 26.1411 203.854 26.9709C203.646 28.0083 203.23 28.8382 202.605 29.668C201.98 30.4979 201.355 31.1203 200.731 31.7427C199.898 32.3651 199.065 32.7801 198.232 32.9875L205.52 44.8133H199.898L193.235 34.0249H186.155V44.8133H180.949ZM185.947 29.8755H194.484C195.109 29.8755 195.733 29.668 196.358 29.4606C196.983 29.2531 197.399 28.6307 197.816 28.2157C198.232 27.5933 198.649 26.9709 198.857 26.3485C199.065 25.7261 199.273 24.8962 199.273 24.0664C199.273 23.2365 199.065 22.6141 198.857 21.7842C198.649 20.9543 198.232 20.5394 197.816 19.917C197.399 19.2946 196.774 18.8796 196.15 18.6722C195.525 18.4647 194.9 18.2572 194.276 18.2572H185.947V29.8755Z" fill="#252525"/>
<path d="M231.132 40.4564V44.8133H209.893V13.9004H230.715V18.2572H214.682V26.9709H228.633V31.1203H214.682V40.6639H231.132V40.4564Z" fill="#252525"/>
</g>
<defs>
<clipPath id="clip0_346:286">
<rect width="231.132" height="50" fill="white"/>
</clipPath>
</defs>
</svg>
